<?xml version="1.0" encoding="UTF-8"?>
<svg id="Camada_1" data-name="Camada 1" xmlns="http://www.w3.org/2000/svg" viewBox="0 0 1616.97 477.83">
  <g>
    <path d="M1120.31,122.29c-9.08-7.67-23.91-11.52-44.5-11.52h-36.12c-16.41,0-28.45,3.93-36.12,11.78-2.52,2.58-4.59,5.67-6.28,9.17V17.59h-41.36l.52,353.35h41.36l-.52-221.44c0-3.14,1.57-4.71,4.71-4.71h85.33c3.48,0,5.23,1.57,5.23,4.71v221.44h41.36v-206.78c0-20.24-4.54-34.2-13.61-41.88Z" fill="#00181e"/>
    <path d="M1316.76,126.22c-9.77-8.2-25.65-12.3-47.64-12.3l-99.46.52v34.55l115.17-.52c3.14,0,4.71,1.75,4.71,5.24v69.1h-72.77c-21.99,0-37.69,3.93-47.11,11.78-9.42,7.85-14.13,22.43-14.13,43.71v42.93c0,19.89,4.62,33.76,13.87,41.62,9.24,7.85,23.82,11.78,43.71,11.78h34.02c16.75,0,28.53-3.93,35.34-11.78,3.7-4.26,6.35-9.83,8.04-16.61l4.26,24.73h36.64v-199.45c0-21.99-4.89-37.08-14.66-45.28ZM1201.6,340.58c-3.49,0-5.24-1.57-5.24-4.71v-77.48c0-3.48,1.74-5.23,5.24-5.23h87.95v87.42h-87.95Z" fill="#00181e"/>
    <g>
      <rect x="1365.8" y="22.83" width="41.36" height="40.31" fill="#00181e"/>
      <rect x="1365.8" y="114.44" width="41.36" height="256.51" fill="#00181e"/>
    </g>
    <path d="M1603.36,122.29c-9.08-7.67-23.74-11.52-43.97-11.52h-36.12c-16.75,0-28.88,3.93-36.38,11.78-3.43,3.59-6.04,8.12-7.9,13.5l-3.35-21.61h-36.12v256.51h41.36l-.52-221.44c0-3.14,1.74-4.71,5.24-4.71h85.33c3.14,0,4.71,1.57,4.71,4.71v221.44h41.36v-206.78c0-20.24-4.54-34.2-13.61-41.88Z" fill="#00181e"/>
    <path d="M759.69,42.03h135.94l47.26-39.09L783.02.02c-27.22-.38-47.35,5.25-60.39,16.92-13.03,11.67-19.54,30.54-19.54,56.59v229.29c0,26.06,6.91,44.93,20.71,56.59,13.81,11.67,34.13,17.3,60.97,16.92l158.11-2.33-47.26-39.67h-135.94c-4.67,0-7-2.53-7-7.59V49.61c0-5.05,2.33-7.58,7-7.58Z" fill="#00181e"/>
  </g>
  <g>
    <path d="M426.75,127.22c-9.77-8.2-25.65-12.3-47.64-12.3l-99.46.52v34.55l115.17-.52c3.14,0,4.71,1.75,4.71,5.24v69.1h-72.77c-21.99,0-37.69,3.93-47.11,11.78-9.42,7.85-14.13,22.43-14.13,43.71v42.93c0,19.89,4.62,33.76,13.87,41.62,9.24,7.85,23.82,11.78,43.71,11.78h34.02c16.75,0,28.53-3.93,35.34-11.78,3.7-4.26,6.35-9.83,8.04-16.61l4.26,24.73h36.64v-199.45c0-21.99-4.89-37.08-14.66-45.28ZM311.58,341.58c-3.49,0-5.24-1.57-5.24-4.71v-77.48c0-3.48,1.74-5.23,5.24-5.23h87.95v87.42h-87.95Z" fill="#00181e"/>
    <path d="M603.52,115.44v226.15h-90.04c-3.49,0-5.23-1.57-5.23-4.71V115.44h-41.36v206.78c0,19.89,4.71,33.76,14.13,41.62,9.42,7.85,24.08,11.78,43.97,11.78h36.12c16.75,0,28.61-3.93,35.6-11.78,2.87-3.23,5.12-7.22,6.81-11.9v83.88c0,3.14-1.57,4.71-4.71,4.71h-123.02v34.55h104.17c23.03,0,39.6-4.37,49.73-13.09,10.12-8.73,15.18-23.74,15.18-45.02l-.52-301.53h-40.83Z" fill="#00181e"/>
    <g>
      <path d="M222.84,16.94C209.81,5.27,189.68-.36,162.46.02L2.6,2.94l47.26,39.09h135.94c4.67,0,7,2.53,7,7.58v277.13c0,5.06-2.33,7.59-7,7.59H49.86L2.6,374l158.11,2.33c26.84.38,47.16-5.25,60.97-16.92,13.8-11.67,20.71-30.53,20.71-56.59V73.53c0-26.05-6.52-44.92-19.54-56.59Z" fill="#00181e"/>
      <polygon points="0 308.15 0 68.21 42.62 98.96 42.62 277.61 0 308.15" fill="#00181e"/>
    </g>
  </g>
</svg>