<svg xmlns="http://www.w3.org/2000/svg" viewBox="0 0 354.18 538.57">
  <style>
    .shape { fill: #00181e; }
    @media (prefers-color-scheme: dark) {
      .shape { fill: #ebfbff; }
    }
  </style>
  <path class="shape" d="M154.52,133.86l45.14,36.68v233.91l-45.14-36.46v-234.13Z"/>
  <path class="shape" d="M2.21,312.9L.02,461.7c-.36,25.26,4.94,44.38,15.92,57.38,10.98,12.99,28.73,19.49,53.26,19.49h215.78c24.52,0,42.28-6.13,53.26-18.39,10.98-12.27,16.28-31.21,15.93-56.83l-2.75-150.44-36.79,44.47v127.93c0,4.39-2.38,6.59-7.14,6.59H46.69c-4.76,0-7.14-2.19-7.14-6.59v-127.93L2.21,312.9Z"/>
  <path class="shape" d="M2.21,225.66L.01,76.87c-.36-25.26,4.94-44.38,15.92-57.38C26.92,6.5,44.67,0,69.2,0h215.78c24.52,0,42.28,6.13,53.26,18.39,10.98,12.27,16.28,31.21,15.93,56.83l-2.75,150.44-36.79-44.47V53.26c0-4.39-2.38-6.59-7.14-6.59H46.69c-4.76,0-7.14,2.19-7.14,6.59v127.93S2.21,225.66,2.21,225.66Z"/>
</svg>
